# xmcd CD database file
# Copyright (C) 1997 Ti Kan
# 
# Track frame offsets:
#     150
#     17535
#     41450
#     54395
#     80002
#     95100
#     112412
#     128085
#     151300
#     167760
#     194105
#     211825
# 
# Disc length: 3129 seconds
# 
# Revision: 1
# Processed by: cddbd v1.4b41PL1 Copyright (c) Steve Scherf et al.
# Submitted via: DiscPlay 4.0.4
# 
DISCID=a50c370c
DTITLE=Reverend Gary Davis - O, Glory: The Apostolic Studio Sessions
DYEAR=1900
DGENRE=
TTITLE0=Let's Get Together
TTITLE1=Sun Goin' Down
TTITLE2=Slippin' Til' My Gal Gets In
TTITLE3=Lo, I'll Be With You Always
TTITLE4=God Will Take Care Of You
TTITLE5=Mornin' Train
TTITLE6=Out On The Ocean Sailing
TTITLE7=Right Now
TTITLE8=Birmingham Special
TTITLE9=Theres Destruction In That Land O, Glory Soon My Work Will All Be Do
TTITLE9=ne
TTITLE10=
TTITLE11=
EXTD=
EXTT0=
EXTT1=
EXTT2=
EXTT3=
EXTT4=
EXTT5=
EXTT6=
EXTT7=
EXTT8=
EXTT9=
EXTT10=
EXTT11=
PLAYORDER=
